<?xml version="1.0" encoding="UTF-8"?>
<!DOCTYPE svg PUBLIC "-//W3C//DTD SVG 1.1//EN" "http://www.w3.org/Graphics/SVG/1.1/DTD/svg11.dtd">
<svg xmlns="http://www.w3.org/2000/svg" xml:space="preserve" width="960px" height="960px" version="1.1" style="shape-rendering:geometricPrecision; text-rendering:geometricPrecision; image-rendering:optimizeQuality; fill-rule:evenodd; clip-rule:evenodd"
viewBox="0 0 960 960"
 xmlns:xlink="http://www.w3.org/1999/xlink">
 <defs>
  <style type="text/css">
   .fil0 {fill:#529C8C}
  </style>
 </defs>
 <path class="fil0" d="M84.799 608.326c5.126,11.809 14.808,26.053 28.945,35.696 9.468,6.458 21.173,10.65 35.063,9.944l0.431 -0.016c1.706,-0.105 3.696,-0.383 5.937,-0.822 8.121,-1.597 15.198,-5.336 19.901,-10.776 4.267,-4.934 6.742,-11.775 6.313,-20.207 -0.091,-1.815 -0.384,-4.004 -0.892,-6.583 -2.445,-12.444 -21.018,-19.099 -39.603,-25.755 -14.722,-5.273 -29.449,-10.548 -44.105,-19.926 -23.018,-14.728 -37.869,-34.017 -45.636,-54.396 -9.001,-23.617 -8.46,-48.699 -0.092,-70.296 35.129,57.647 96.516,92.641 170.818,107.283 12.942,11.203 22.885,26.62 27.414,49.66 1.048,5.328 1.702,10.828 1.988,16.451 1.416,27.827 -7.703,51.498 -23.305,69.541 -15.164,17.539 -36.235,29.251 -59.371,33.799 -4.754,0.934 -9.923,1.57 -15.47,1.887l-0.766 0.048c-31.081,1.58 -57.119,-7.698 -78.093,-22.003 -26.312,-17.947 -44.203,-44.174 -53.612,-65.847l64.135 -27.682zm-13.157 -196.761c5.619,-6.366 11.912,-12.094 18.707,-17.044 17.26,-12.571 37.968,-20.345 59.413,-21.225 27.631,-1.136 51.49,-0.114 73.592,8.922 24.905,10.184 44.099,28.484 57.697,60.974 27.565,65.856 52.547,119.019 71.628,157.48 10.204,34.116 23.27,69.521 40.916,99.253 -1.534,3.349 -2.359,4.994 -2.373,5.024l-0.055 -0.028c-2.96,6.011 -7.678,11.239 -13.923,14.828 -16.726,9.612 -38.078,3.844 -47.691,-12.882 -0.148,-0.259 -51.232,-88.798 -113.188,-236.815 -5.546,-13.252 -11.867,-20.1 -19.323,-23.149 -10.26,-4.195 -25.62,-4.492 -44.54,-3.716 -7.322,0.301 -14.671,3.159 -21.039,7.796 -6.692,4.874 -12.086,11.53 -15.118,19.141 -1.515,3.802 -2.084,8.148 -1.582,12.667 -12.232,-10.87 -22.794,-23.671 -30.969,-38.726 -4.918,-9.058 -9.146,-20.412 -12.152,-32.5zm302.545 136.841c6.804,-22.122 14.168,-47.484 21.949,-76.341 9.212,-34.166 22.01,-58.053 39.575,-74.262 19.74,-18.216 43.107,-25.46 71.649,-24.951l-1.096 69.891c-10.236,-0.182 -17.87,1.728 -23.136,6.587 -7.443,6.868 -13.673,19.985 -19.292,40.826 -29.287,108.605 -53.893,171.867 -65.485,198.992 -6.957,-14.071 -12.247,-29.02 -16.131,-43.975 -6.588,-25.366 -10.661,-65.429 -8.033,-96.767z"/>
  <path class="fil0" d="M888.692 280.945l0 285.831c0,184.478 -165.718,155.795 -166.194,155.718 -17.185,-2.796 -29.394,-17.668 -29.373,-34.535l-0.092 0 0 -73.149 -0.812 1.519c-16.184,29.995 -34.484,56.784 -54.03,75.91 -21.475,-8.331 -37.742,-25.069 -50.202,-45.182 11.405,-10.323 26.857,-34.785 42.563,-63.893 24.99,-46.314 46.271,-101.291 56.31,-138.593 -29.271,-0.232 -62.186,1.218 -83.36,11.94 -15.794,7.999 -27.866,21.193 -36.453,37.584 -10.488,20.021 -16.015,44.725 -17.019,71.096 -0.167,4.398 -0.279,10.268 -0.112,16.964 -1.889,52.535 18.309,105.516 60.458,131.255 -10.256,5.546 -20.722,8.67 -31.292,8.8 -52.221,0.638 -77.857,-34.099 -90.032,-74.771 -9.515,-31.788 -9.578,-67.218 -8.914,-84.714 1.385,-36.414 9.488,-71.422 24.969,-100.973 15.206,-29.029 37.297,-52.752 66.875,-67.731 41.74,-21.138 96.294,-19.9 136.809,-18.981 4.108,0.093 43.205,0.181 54.536,0.181 -0.328,92.335 -0.128,184.685 -0.128,277.023 24.483,-5.346 55.328,-24.226 55.328,-85.468l0 -80.618c9.973,-71.259 29.584,-154.241 70.165,-205.213zm-70.165 86.437l0 -98.987c0,-25.44 6.39,-55.834 29.306,-78.743 17.144,-17.14 42.137,-28.768 78.225,-28.768l0 55.597c-55.423,23.749 -88.708,83.073 -107.531,150.901z"/>
</svg>
