<?xml version="1.0" encoding="UTF-8"?>
<!DOCTYPE svg PUBLIC "-//W3C//DTD SVG 1.1//EN" "http://www.w3.org/Graphics/SVG/1.1/DTD/svg11.dtd">
<svg xmlns="http://www.w3.org/2000/svg" xml:space="preserve" width="960px" height="960px" version="1.1" style="shape-rendering:geometricPrecision; text-rendering:geometricPrecision; image-rendering:optimizeQuality; fill-rule:evenodd; clip-rule:evenodd"
viewBox="0 0 960 960"
 xmlns:xlink="http://www.w3.org/1999/xlink">
 <defs>
  <style>
   .logo {fill:#529C8C}
  </style>
 </defs>
 <path class="logo" d="M88.896 582.052c5.032,11.592 14.536,25.575 28.414,35.042 9.295,6.339 20.785,10.455 34.42,9.761l0.423 -0.016c1.675,-0.103 3.629,-0.375 5.828,-0.807 7.973,-1.567 14.921,-5.239 19.537,-10.578 4.188,-4.843 6.618,-11.559 6.197,-19.836 -0.09,-1.782 -0.377,-3.931 -0.875,-6.463 -2.402,-12.216 -20.634,-18.748 -38.878,-25.283 -14.451,-5.176 -28.909,-10.355 -43.296,-19.56 -22.595,-14.458 -37.174,-33.394 -44.799,-53.399 -8.574,-22.496 -8.328,-46.347 -0.802,-67.112 35.037,57.699 96.829,92.329 171.537,106.281 11.167,10.734 19.7,25.173 23.772,45.889 1.028,5.232 1.671,10.631 1.952,16.149 1.389,27.318 -7.562,50.555 -22.878,68.267 -14.887,17.217 -35.571,28.715 -58.283,33.18 -4.667,0.916 -9.741,1.54 -15.186,1.851l-0.752 0.048c-30.511,1.551 -56.072,-7.557 -76.661,-21.6 -25.829,-17.618 -43.393,-43.364 -52.63,-64.639l62.96 -27.175zm-13.759 -192.188c5.726,-6.638 12.193,-12.588 19.207,-17.697 16.943,-12.341 37.272,-19.972 58.323,-20.836 27.125,-1.116 50.547,-0.112 72.244,8.759 24.448,9.996 43.29,27.962 56.638,59.855 25.598,61.154 48.925,111.159 67.228,148.344 10.361,35.438 23.922,73.539 42.553,105.199 -1.054,2.263 -1.617,3.391 -1.629,3.415l-0.054 -0.027c-2.906,5.901 -7.537,11.033 -13.668,14.556 -16.419,9.436 -37.38,3.774 -46.816,-12.646 -0.146,-0.253 -50.293,-87.17 -111.113,-232.473 -5.444,-13.008 -11.649,-19.731 -18.969,-22.724 -10.072,-4.119 -25.15,-4.411 -43.724,-3.648 -7.187,0.295 -14.401,3.1 -20.653,7.653 -6.569,4.784 -11.864,11.316 -14.841,18.789 -1.829,4.593 -2.252,9.995 -1.041,15.527 -12.458,-10.868 -23.204,-23.738 -31.465,-38.95 -4.989,-9.189 -9.255,-20.787 -12.22,-33.096zm297.428 134.705c6.794,-22.03 14.163,-47.368 21.96,-76.28 9.043,-33.536 21.604,-56.988 38.849,-72.901 19.378,-17.881 42.317,-24.993 70.335,-24.494l-1.076 68.611c-10.048,-0.179 -17.541,1.694 -22.712,6.466 -7.305,6.741 -13.422,19.619 -18.938,40.077 -29.44,109.18 -54.065,171.68 -65.082,197.205 -14.278,-29.048 -21.47,-62.367 -23.753,-93.124 -0.459,-6.177 -0.549,-28.218 0.417,-45.56z"/>
  <path class="logo" d="M878.051 261.75l0 279.513c0,181.097 -162.681,152.939 -163.148,152.863 -16.87,-2.744 -28.855,-17.343 -28.834,-33.901l-0.09 0 0 -71.808 -0.798 1.491c-7.569,14.028 -15.611,27.34 -24.03,39.466 -9.245,5.72 -19.078,10.697 -29.607,13.436 -23.025,5.991 -39.392,-4.198 -51.05,-20.76 11.369,-8.66 27.616,-34.057 44.149,-64.699 23.51,-43.57 43.676,-94.953 53.99,-131.387 -30.233,5.393 -62.451,16.65 -88.051,35.115 -25.268,18.224 -43.664,43.978 -44.984,78.629 -0.342,8.989 -0.457,24.237 1.672,40.045 6.086,54.322 35.05,93.985 83.266,86.223 -17.991,17.149 -37.027,27.634 -56.418,27.872 -51.262,0.629 -76.43,-33.472 -88.381,-73.399 -9.341,-31.203 -9.404,-65.984 -8.75,-83.162 2.254,-59.19 32.296,-102.182 73.506,-131.904 50.953,-36.75 118.133,-49.156 205.502,-52.163 -2.975,90.133 -1.136,181.651 -1.136,271.943 24.034,-5.247 54.313,-23.78 54.313,-83.9l0 -101.908c10.157,-65.282 29.96,-133.716 68.879,-177.605zm-68.879 72.443l0 -85.84c0,-24.974 6.272,-54.81 28.768,-77.3 16.831,-16.825 41.365,-28.24 76.792,-28.24l0 58.408c-52.868,23.129 -86.071,73.639 -105.56,132.972z"/>
</svg>
